<svg width="34" height="34" viewBox="0 0 34 34" fill="none" xmlns="http://www.w3.org/2000/svg">
<path fill-rule="evenodd" clip-rule="evenodd" d="M16.9997 0.333252C16.2055 0.333252 15.4212 0.50858 14.7027 0.846718L4.16103 5.80749C1.82441 6.90707 0.333008 9.2572 0.333008 11.8396V23.6666C0.333008 25.3295 1.29339 26.8429 2.79804 27.5509L14.7027 33.1531C15.4212 33.4913 16.2055 33.6666 16.9997 33.6666C17.7938 33.6666 18.5781 33.4913 19.2967 33.1531L31.2013 27.5509C32.706 26.8429 33.6663 25.3295 33.6663 23.6666V11.8396C33.6663 9.2572 32.1749 6.90707 29.8383 5.80749L19.2967 0.846719C18.5781 0.508581 17.7938 0.333252 16.9997 0.333252ZM30.333 20.9699L18.6663 15.1365V4.23407L28.419 8.82355C29.5873 9.37334 30.333 10.5484 30.333 11.8396V20.9699ZM16.9997 18.03L29.8902 24.4752C29.8557 24.4972 29.8196 24.5172 29.782 24.5349L17.8774 30.1371C17.6028 30.2663 17.3031 30.3333 16.9997 30.3333C16.6962 30.3333 16.3965 30.2663 16.122 30.1371L4.21737 24.5349C4.17974 24.5172 4.14364 24.4972 4.10919 24.4752L16.9997 18.03ZM15.333 15.1365L3.66634 20.9699V11.8396C3.66634 10.5484 4.41204 9.37334 5.58035 8.82355L15.333 4.23407V15.1365Z" fill="#F56630"/>
</svg>
