<svg width="40" height="41" viewBox="0 0 40 41" fill="none" xmlns="http://www.w3.org/2000/svg">
<path fill-rule="evenodd" clip-rule="evenodd" d="M19.9999 4.26544C19.2058 4.26544 18.4215 4.44077 17.7029 4.77891L7.16127 9.73968C4.82466 10.8393 3.33325 13.1894 3.33325 15.7718V27.5988C3.33325 29.2617 4.29363 30.7751 5.79829 31.4831L17.7029 37.0853C18.4215 37.4234 19.2058 37.5988 19.9999 37.5988C20.7941 37.5988 21.5784 37.4234 22.2969 37.0853L34.2015 31.4831C35.7062 30.7751 36.6666 29.2617 36.6666 27.5988V15.7718C36.6666 13.1894 35.1752 10.8393 32.8386 9.73968L22.2969 4.77891C21.5784 4.44077 20.7941 4.26544 19.9999 4.26544ZM33.3333 24.9021L21.6666 19.0687V8.16626L31.4192 12.7557C32.5876 13.3055 33.3333 14.4806 33.3333 15.7718V24.9021ZM19.9999 21.9622L32.8904 28.4074C32.8559 28.4294 32.8198 28.4494 32.7822 28.4671L20.8776 34.0692C20.6031 34.1985 20.3034 34.2654 19.9999 34.2654C19.6965 34.2654 19.3968 34.1985 19.1222 34.0692L7.21761 28.4671C7.17999 28.4494 7.14389 28.4294 7.10944 28.4074L19.9999 21.9622ZM18.3333 19.0687L6.66659 24.9021V15.7718C6.66659 14.4806 7.41229 13.3055 8.5806 12.7557L18.3333 8.16626V19.0687Z" fill="#1671D9"/>
</svg>
