<svg width="40" height="40" viewBox="0 0 40 40" fill="none" xmlns="http://www.w3.org/2000/svg">
<path fill-rule="evenodd" clip-rule="evenodd" d="M20 3.33331C19.2059 3.33331 18.4216 3.50864 17.703 3.84678L7.1614 8.80755C4.82478 9.90713 3.33337 12.2573 3.33337 14.8397V26.6666C3.33337 28.3296 4.29376 29.8429 5.79841 30.551L17.703 36.1532C18.4216 36.4913 19.2059 36.6666 20 36.6666C20.7942 36.6666 21.5785 36.4913 22.2971 36.1532L34.2017 30.551C35.7063 29.8429 36.6667 28.3296 36.6667 26.6666V14.8397C36.6667 12.2573 35.1753 9.90713 32.8387 8.80755L22.2971 3.84678C21.5785 3.50864 20.7942 3.33331 20 3.33331ZM33.3334 23.9699L21.6667 18.1366V7.23413L31.4194 11.8236C32.5877 12.3734 33.3334 13.5485 33.3334 14.8397V23.9699ZM20 21.03L32.8905 27.4753C32.8561 27.4973 32.82 27.5172 32.7823 27.5349L20.8777 33.1371C20.6032 33.2663 20.3035 33.3333 20 33.3333C19.6966 33.3333 19.3969 33.2663 19.1224 33.1371L7.21773 27.5349C7.18011 27.5172 7.14401 27.4973 7.10956 27.4753L20 21.03ZM18.3334 18.1366L6.66671 23.9699V14.8397C6.66671 13.5485 7.41241 12.3734 8.58072 11.8236L18.3334 7.23413V18.1366Z" fill="#F56630"/>
</svg>
