<svg width="144" height="27" viewBox="0 0 144 27" fill="none" xmlns="http://www.w3.org/2000/svg">
<g clip-path="url(#clip0_7327_392)">
<path d="M41.2685 5.70295L41.2841 5.4721H41.4985V3.05365V2.89575L41.3514 2.8385C40.895 2.66098 40.3482 2.59385 39.7846 2.59385C37.6719 2.59385 35.9917 3.5143 35.0505 5.13393V3.08611V2.85526H34.8196H32.1116H31.8807V3.08611V19.624V19.8548H32.1116H34.8196H35.0505V19.624V11.159C35.0505 9.24692 35.5026 7.86446 36.3098 6.96174C37.1132 6.06337 38.3002 5.60471 39.8496 5.60471C40.2548 5.60471 40.6372 5.62801 41.0368 5.67531V5.70295H41.2677H41.2685Z" fill="#101928" stroke="#101928" stroke-width="0.461714"/>
<path d="M58.5187 19.856H58.7496V19.6251V3.31814V3.08728V3.08643H58.5187V2.85643H55.8107H55.5798V3.08728V5.22657C54.4143 3.47324 52.2363 2.39854 49.7812 2.39854C45.1488 2.39854 41.7799 6.15383 41.7799 11.3558C41.7799 16.5577 45.1488 20.3139 49.7812 20.3139C52.2363 20.3139 54.4143 19.2392 55.5798 17.4859V19.6251V19.856H55.8107H58.5187ZM54.2179 7.06206L54.2179 7.06207L54.2203 7.06479C55.207 8.15851 55.7088 9.60331 55.7088 11.3549C55.7088 13.1066 55.207 14.5514 54.2203 15.6451L54.2203 15.6451L54.2179 15.6478C53.266 16.7372 51.9775 17.3013 50.3937 17.3013C48.8114 17.3013 47.5214 16.7381 46.5359 15.6464C45.5802 14.5519 45.0786 13.106 45.0786 11.3549C45.0786 9.60391 45.5802 8.15796 46.5359 7.06345C47.5214 5.9718 48.8114 5.40855 50.3937 5.40855C51.9775 5.40855 53.266 5.97263 54.2179 7.06206Z" fill="#101928" stroke="#101928" stroke-width="0.461714"/>
<path d="M76.4124 3.08643V2.85557H76.1815H76.1798H73.4718H73.2409V3.08643V12.4663C73.2409 13.7759 72.7351 14.8648 71.8829 15.6284C71.0287 16.3939 69.8128 16.8443 68.3777 16.8443C67.1448 16.8443 66.287 16.5134 65.7294 15.8482C65.164 15.1739 64.8686 14.1118 64.8686 12.5646V3.08643V2.85557H64.6377H61.9297H61.6988V3.08643V13.2181C61.6988 15.3315 62.249 16.9961 63.2954 18.134C64.3444 19.2748 65.8631 19.8551 67.7336 19.8551C70.1228 19.8551 72.118 18.9376 73.2418 17.2518V18.0225C73.2418 19.999 72.7662 21.447 71.9107 22.3991C71.0588 23.3471 69.7989 23.8382 68.1531 23.8382C66.2701 23.8382 64.4574 23.1701 63.1824 22.0031L63.001 21.8371L62.8468 22.0286L61.2672 23.99L61.1395 24.1487L61.281 24.2952C62.851 25.921 65.4327 26.8499 68.218 26.8499C70.7794 26.8499 72.8379 26.0833 74.2543 24.5753C75.6686 23.0695 76.4124 20.8565 76.4124 18.0234V3.08643Z" fill="#101928" stroke="#101928" stroke-width="0.461714"/>
<path d="M93.811 19.8559H94.0419V19.625V19.6242V9.03461C94.0419 6.95455 93.5082 5.29049 92.4706 4.14433C91.4298 2.99475 89.9106 2.39756 88.0071 2.39756C85.6283 2.39756 83.6626 3.30794 82.5639 4.98168V3.08631V2.85545H82.333H79.625H79.3941V3.08631V19.625V19.8559H79.625H82.333H82.5639V19.625V9.78722C82.5639 8.4597 83.0631 7.37103 83.9027 6.61232C84.7445 5.85169 85.9438 5.40928 87.363 5.40928C88.6126 5.40928 89.4695 5.74062 90.0228 6.40481C90.5841 7.0787 90.8721 8.14047 90.8721 9.68898V19.625V19.8559H91.103H93.811Z" fill="#101928" stroke="#101928" stroke-width="0.461714"/>
<path d="M113.22 19.856H113.451V19.6251V3.31814V3.08728V3.08643H113.22V2.85643H110.512H110.281V3.08728V5.22657C109.116 3.47324 106.938 2.39854 104.483 2.39854C99.8505 2.39854 96.4815 6.15383 96.4815 11.3558C96.4815 16.5577 99.8505 20.3139 104.483 20.3139C106.938 20.3139 109.116 19.2392 110.281 17.4859V19.6251V19.856H110.512H113.22ZM108.92 7.06206L108.92 7.06207L108.922 7.06479C109.909 8.15851 110.41 9.60331 110.41 11.3549C110.41 13.1066 109.909 14.5514 108.922 15.6451L108.922 15.6451L108.92 15.6478C107.968 16.7372 106.679 17.3013 105.095 17.3013C103.513 17.3013 102.223 16.7381 101.238 15.6464C100.282 14.5519 99.7803 13.106 99.7803 11.3549C99.7803 9.60391 100.282 8.15796 101.238 7.06345C102.223 5.97179 103.513 5.40855 105.095 5.40855C106.679 5.40855 107.968 5.97263 108.92 7.06206Z" fill="#101928" stroke="#101928" stroke-width="0.461714"/>
<path d="M125.745 3.08643V2.85557H125.514H122.806H122.804H122.574V3.08643V13.4479C122.574 15.466 123.296 17.1874 124.576 18.4035C125.854 19.6188 127.671 20.3139 129.833 20.3139C131.995 20.3139 133.813 19.6188 135.091 18.4035C136.37 17.1874 137.093 15.466 137.093 13.4479V3.08643V2.85557H136.862H134.154H133.923V3.08643V13.2839C133.923 14.6127 133.542 15.6084 132.861 16.2728C132.179 16.938 131.164 17.3022 129.834 17.3022C128.505 17.3022 127.49 16.938 126.808 16.2728C126.126 15.6084 125.745 14.6127 125.745 13.2839V3.08643Z" fill="#101928" stroke="#101928" stroke-width="0.461714"/>
<path d="M140.491 2.85557H140.26V3.08643V19.6251V19.856H140.491H143.199H143.43V19.6251V3.08643V2.85557H143.199H140.491Z" fill="#101928" stroke="#101928" stroke-width="0.461714"/>
<path d="M19.9962 14.26L18.5448 12.8086C18.5081 12.7719 18.5209 12.7104 18.5679 12.6899C19.0804 12.4686 19.5597 12.1833 19.9962 11.8458C20.1525 11.7245 20.3029 11.5972 20.4473 11.4631C20.8684 11.0719 21.2383 10.6268 21.5459 10.1381C21.5467 10.1364 21.5476 10.1356 21.5484 10.1339C21.7346 9.83744 21.8987 9.52477 22.0371 9.1993C22.3711 8.41337 22.5573 7.5497 22.5607 6.64246C22.5607 6.64246 22.5607 6.6416 22.5607 6.64075C22.5607 6.63221 22.5607 6.62366 22.5607 6.61512C22.5607 5.70874 22.3788 4.84592 22.049 4.05914C21.9388 3.79517 21.8115 3.53974 21.6689 3.29456C21.6689 3.29286 21.6672 3.292 21.6672 3.29115C21.0256 2.18913 20.0748 1.29044 18.9343 0.712097C18.9301 0.709535 18.9249 0.706972 18.9207 0.705263C18.0382 0.260187 16.5466 0.00732246 15.4925 0.000488281C15.478 0.000488281 15.9606 0.000488281 15.9461 0.000488281C15.9316 0.000488281 15.9179 0.000488281 15.9034 0.000488281H1.97105C0.882708 0.000488281 0.000244141 0.882952 0.000244141 1.9713V16.0241C0.000244141 16.4794 0.0463749 16.9245 0.134365 17.3542C0.134365 17.355 0.134365 17.3559 0.134365 17.3576C0.298385 18.1589 0.607632 18.9081 1.03306 19.5753C1.03306 19.577 1.03477 19.5779 1.03562 19.5796C1.74809 20.6961 2.78688 21.5845 4.01703 22.1099C4.0213 22.1116 4.02558 22.1133 4.02985 22.115C4.03924 22.1193 4.0495 22.1236 4.05889 22.1279C4.69191 22.3935 5.37447 22.5627 6.0895 22.6191C6.26292 22.6327 6.43719 22.6396 6.61402 22.6396C7.52638 22.6396 8.39518 22.455 9.18538 22.121C9.74322 21.8852 10.2626 21.5751 10.7308 21.2027C10.7316 21.2027 10.7325 21.2018 10.7333 21.201C10.7419 21.1941 10.7513 21.1873 10.7598 21.1796C10.7624 21.1779 10.7649 21.1753 10.7675 21.1736C11.3732 20.6841 11.8909 20.0904 12.2924 19.419C12.8613 18.4682 13.1988 17.3636 13.2261 16.1821V16.1796C13.2269 16.1283 13.2278 16.077 13.2278 16.0258C13.2278 15.9745 13.2278 15.9233 13.2261 15.872V13.51C13.2261 13.4083 13.3491 13.357 13.4209 13.4288L19.411 19.419L20.8129 20.8208C21.4596 21.4675 22.5641 21.0096 22.5641 20.0955V17.5643C22.5641 17.0962 22.3779 16.6468 22.0465 16.3154L19.9928 14.2617L19.9962 14.26ZM15.9435 9.1993H9.63387C9.38699 9.1993 9.18624 9.3992 9.18624 9.64693V16.0796V16.0805C9.10508 17.8847 7.28975 19.0533 5.62307 18.3554C4.72266 17.9787 4.11357 17.1099 4.05889 16.1266V4.45381C4.05889 4.23853 4.23402 4.06341 4.4493 4.06341L9.84317 4.05999C9.84317 4.05999 9.84317 4.0617 9.84232 4.06255C10.9742 4.06255 12.1429 4.06255 13.2278 4.06255C14.241 4.06255 15.1815 4.06255 15.9504 4.06426C17.342 4.06597 18.4901 5.22437 18.4952 6.6117C18.5004 8.03407 17.3719 9.17965 15.9435 9.20015V9.1993Z" fill="#F56630"/>
</g>
<defs>
<clipPath id="clip0_7327_392">
<rect width="143.2" height="26.6183" fill="white"/>
</clipPath>
</defs>
</svg>
