<svg width="40" height="41" viewBox="0 0 40 41" fill="none" xmlns="http://www.w3.org/2000/svg">
<circle cx="20" cy="20.9321" r="20" fill="#E3EFFC"/>
<path d="M18 21.4321C17.6022 21.4321 17.2206 21.5902 16.9393 21.8715C16.658 22.1528 16.5 22.5343 16.5 22.9321C16.5 23.33 16.658 23.7115 16.9393 23.9928C17.2206 24.2741 17.6022 24.4321 18 24.4321C18.3978 24.4321 18.7794 24.2741 19.0607 23.9928C19.342 23.7115 19.5 23.33 19.5 22.9321C19.5 22.5343 19.342 22.1528 19.0607 21.8715C18.7794 21.5902 18.3978 21.4321 18 21.4321ZM18 23.4321C17.8674 23.4321 17.7402 23.3795 17.6464 23.2857C17.5527 23.1919 17.5 23.0647 17.5 22.9321C17.5 22.7995 17.5527 22.6723 17.6464 22.5786C17.7402 22.4848 17.8674 22.4321 18 22.4321C18.1326 22.4321 18.2598 22.4848 18.3536 22.5786C18.4473 22.6723 18.5 22.7995 18.5 22.9321C18.5 23.0647 18.4473 23.1919 18.3536 23.2857C18.2598 23.3795 18.1326 23.4321 18 23.4321ZM18 17.4321C17.6022 17.4321 17.2206 17.5902 16.9393 17.8715C16.658 18.1528 16.5 18.5343 16.5 18.9321C16.5 19.33 16.658 19.7115 16.9393 19.9928C17.2206 20.2741 17.6022 20.4321 18 20.4321C18.3978 20.4321 18.7794 20.2741 19.0607 19.9928C19.342 19.7115 19.5 19.33 19.5 18.9321C19.5 18.5343 19.342 18.1528 19.0607 17.8715C18.7794 17.5902 18.3978 17.4321 18 17.4321ZM18 19.4321C17.8674 19.4321 17.7402 19.3795 17.6464 19.2857C17.5527 19.1919 17.5 19.0647 17.5 18.9321C17.5 18.7995 17.5527 18.6723 17.6464 18.5786C17.7402 18.4848 17.8674 18.4321 18 18.4321C18.1326 18.4321 18.2598 18.4848 18.3536 18.5786C18.4473 18.6723 18.5 18.7995 18.5 18.9321C18.5 19.0647 18.4473 19.1919 18.3536 19.2857C18.2598 19.3795 18.1326 19.4321 18 19.4321ZM29.5 21.4321C29.6326 21.4321 29.7598 21.3795 29.8536 21.2857C29.9473 21.1919 30 21.0647 30 20.9321C30 20.7995 29.9473 20.6723 29.8536 20.5786C29.7598 20.4848 29.6326 20.4321 29.5 20.4321H27V17.4321H29.5C29.6326 17.4321 29.7598 17.3795 29.8536 17.2857C29.9473 17.1919 30 17.0647 30 16.9321C30 16.7995 29.9473 16.6723 29.8536 16.5786C29.7598 16.4848 29.6326 16.4321 29.5 16.4321H27C26.9995 15.7693 26.7359 15.1337 26.2672 14.6649C25.7985 14.1962 25.1629 13.9327 24.5 13.9321V11.4321C24.5 11.2995 24.4473 11.1723 24.3536 11.0786C24.2598 10.9848 24.1326 10.9321 24 10.9321C23.8674 10.9321 23.7402 10.9848 23.6464 11.0786C23.5527 11.1723 23.5 11.2995 23.5 11.4321V13.9321H20.5V11.4321C20.5 11.2995 20.4473 11.1723 20.3536 11.0786C20.2598 10.9848 20.1326 10.9321 20 10.9321C19.8674 10.9321 19.7402 10.9848 19.6464 11.0786C19.5527 11.1723 19.5 11.2995 19.5 11.4321V13.9321H16.5V11.4321C16.5 11.2995 16.4473 11.1723 16.3536 11.0786C16.2598 10.9848 16.1326 10.9321 16 10.9321C15.8674 10.9321 15.7402 10.9848 15.6464 11.0786C15.5527 11.1723 15.5 11.2995 15.5 11.4321V13.9321C14.8371 13.9327 14.2015 14.1962 13.7328 14.6649C13.2641 15.1337 13.0005 15.7693 13 16.4321H10.5C10.3674 16.4321 10.2402 16.4848 10.1464 16.5786C10.0527 16.6723 10 16.7995 10 16.9321C10 17.0647 10.0527 17.1919 10.1464 17.2857C10.2402 17.3795 10.3674 17.4321 10.5 17.4321H13V20.4321H10.5C10.3674 20.4321 10.2402 20.4848 10.1464 20.5786C10.0527 20.6723 10 20.7995 10 20.9321C10 21.0647 10.0527 21.1919 10.1464 21.2857C10.2402 21.3795 10.3674 21.4321 10.5 21.4321H13V24.4321H10.5C10.3674 24.4321 10.2402 24.4848 10.1464 24.5786C10.0527 24.6723 10 24.7995 10 24.9321C10 25.0647 10.0527 25.1919 10.1464 25.2857C10.2402 25.3795 10.3674 25.4321 10.5 25.4321H13C13.0005 26.095 13.2641 26.7306 13.7328 27.1993C14.2015 27.668 14.8371 27.9316 15.5 27.9321V30.4321C15.5 30.5647 15.5527 30.6919 15.6464 30.7857C15.7402 30.8795 15.8674 30.9321 16 30.9321C16.1326 30.9321 16.2598 30.8795 16.3536 30.7857C16.4473 30.6919 16.5 30.5647 16.5 30.4321V27.9321H19.5V30.4321C19.5 30.5647 19.5527 30.6919 19.6464 30.7857C19.7402 30.8795 19.8674 30.9321 20 30.9321C20.1326 30.9321 20.2598 30.8795 20.3536 30.7857C20.4473 30.6919 20.5 30.5647 20.5 30.4321V27.9321H23.5V30.4321C23.5 30.5647 23.5527 30.6919 23.6464 30.7857C23.7402 30.8795 23.8674 30.9321 24 30.9321C24.1326 30.9321 24.2598 30.8795 24.3536 30.7857C24.4473 30.6919 24.5 30.5647 24.5 30.4321V27.9321C25.1629 27.9316 25.7985 27.668 26.2672 27.1993C26.7359 26.7306 26.9995 26.095 27 25.4321H29.5C29.6326 25.4321 29.7598 25.3795 29.8536 25.2857C29.9473 25.1919 30 25.0647 30 24.9321C30 24.7995 29.9473 24.6723 29.8536 24.5786C29.7598 24.4848 29.6326 24.4321 29.5 24.4321H27V21.4321H29.5ZM26 25.4321C26 25.83 25.842 26.2115 25.5607 26.4928C25.2794 26.7741 24.8978 26.9321 24.5 26.9321H15.5C15.1022 26.9321 14.7206 26.7741 14.4393 26.4928C14.158 26.2115 14 25.83 14 25.4321V16.4321C14 16.0343 14.158 15.6528 14.4393 15.3715C14.7206 15.0902 15.1022 14.9321 15.5 14.9321H24.5C24.8978 14.9321 25.2794 15.0902 25.5607 15.3715C25.842 15.6528 26 16.0343 26 16.4321V25.4321ZM22 17.4321C21.6022 17.4321 21.2206 17.5902 20.9393 17.8715C20.658 18.1528 20.5 18.5343 20.5 18.9321C20.5 19.33 20.658 19.7115 20.9393 19.9928C21.2206 20.2741 21.6022 20.4321 22 20.4321C22.3978 20.4321 22.7794 20.2741 23.0607 19.9928C23.342 19.7115 23.5 19.33 23.5 18.9321C23.5 18.5343 23.342 18.1528 23.0607 17.8715C22.7794 17.5902 22.3978 17.4321 22 17.4321ZM22 19.4321C21.8674 19.4321 21.7402 19.3795 21.6464 19.2857C21.5527 19.1919 21.5 19.0647 21.5 18.9321C21.5 18.7995 21.5527 18.6723 21.6464 18.5786C21.7402 18.4848 21.8674 18.4321 22 18.4321C22.1326 18.4321 22.2598 18.4848 22.3536 18.5786C22.4473 18.6723 22.5 18.7995 22.5 18.9321C22.5 19.0647 22.4473 19.1919 22.3536 19.2857C22.2598 19.3795 22.1326 19.4321 22 19.4321ZM22 21.4321C21.6022 21.4321 21.2206 21.5902 20.9393 21.8715C20.658 22.1528 20.5 22.5343 20.5 22.9321C20.5 23.33 20.658 23.7115 20.9393 23.9928C21.2206 24.2741 21.6022 24.4321 22 24.4321C22.3978 24.4321 22.7794 24.2741 23.0607 23.9928C23.342 23.7115 23.5 23.33 23.5 22.9321C23.5 22.5343 23.342 22.1528 23.0607 21.8715C22.7794 21.5902 22.3978 21.4321 22 21.4321ZM22 23.4321C21.8674 23.4321 21.7402 23.3795 21.6464 23.2857C21.5527 23.1919 21.5 23.0647 21.5 22.9321C21.5 22.7995 21.5527 22.6723 21.6464 22.5786C21.7402 22.4848 21.8674 22.4321 22 22.4321C22.1326 22.4321 22.2598 22.4848 22.3536 22.5786C22.4473 22.6723 22.5 22.7995 22.5 22.9321C22.5 23.0647 22.4473 23.1919 22.3536 23.2857C22.2598 23.3795 22.1326 23.4321 22 23.4321Z" fill="#012657"/>
</svg>
