<svg width="40" height="41" viewBox="0 0 40 41" fill="none" xmlns="http://www.w3.org/2000/svg">
<circle cx="20" cy="20.9321" r="20" fill="#E3EFFC"/>
<path d="M27.5 12.1196H12.5C12.1519 12.1196 11.8181 12.2579 11.5719 12.5041C11.3258 12.7502 11.1875 13.084 11.1875 13.4321V28.4321C11.1875 28.7802 11.3258 29.1141 11.5719 29.3602C11.8181 29.6063 12.1519 29.7446 12.5 29.7446H27.5C27.8481 29.7446 28.1819 29.6063 28.4281 29.3602C28.6742 29.1141 28.8125 28.7802 28.8125 28.4321V13.4321C28.8125 13.084 28.6742 12.7502 28.4281 12.5041C28.1819 12.2579 27.8481 12.1196 27.5 12.1196ZM16.25 23.7446C16.4354 23.7446 16.6167 23.7996 16.7708 23.9026C16.925 24.0056 17.0452 24.1521 17.1161 24.3234C17.1871 24.4947 17.2057 24.6832 17.1695 24.865C17.1333 25.0469 17.044 25.2139 16.9129 25.345C16.7818 25.4762 16.6148 25.5654 16.4329 25.6016C16.251 25.6378 16.0625 25.6192 15.8912 25.5483C15.7199 25.4773 15.5735 25.3571 15.4705 25.203C15.3675 25.0488 15.3125 24.8675 15.3125 24.6821C15.3125 24.4335 15.4113 24.195 15.5871 24.0192C15.7629 23.8434 16.0014 23.7446 16.25 23.7446ZM12.3125 28.4321V13.4321C12.3125 13.3824 12.3323 13.3347 12.3674 13.2995C12.4026 13.2644 12.4503 13.2446 12.5 13.2446H15.6875V22.6984C15.2086 22.8341 14.7949 23.1386 14.5228 23.5555C14.2507 23.9723 14.1386 24.4736 14.2071 24.9666C14.2757 25.4597 14.5202 25.9114 14.8957 26.2383C15.2712 26.5651 15.7522 26.7452 16.25 26.7452C16.7478 26.7452 17.2288 26.5651 17.6043 26.2383C17.9798 25.9114 18.2243 25.4597 18.2929 24.9666C18.3614 24.4736 18.2493 23.9723 17.9772 23.5555C17.7051 23.1386 17.2914 22.8341 16.8125 22.6984V19.2906L21.6875 24.1656V28.6196H12.5C12.4503 28.6196 12.4026 28.5999 12.3674 28.5647C12.3323 28.5295 12.3125 28.4819 12.3125 28.4321ZM27.6875 28.4321C27.6875 28.4819 27.6677 28.5295 27.6326 28.5647C27.5974 28.5999 27.5497 28.6196 27.5 28.6196H22.8125V23.9321C22.8124 23.783 22.753 23.64 22.6475 23.5346L16.8125 17.6987V13.2446H20.1875V15.6821C20.1876 15.8313 20.247 15.9742 20.3525 16.0796L21.9462 17.6734C21.7035 18.108 21.6262 18.6158 21.7285 19.103C21.8308 19.5903 22.1059 20.024 22.5031 20.3243C22.9002 20.6245 23.3925 20.771 23.8892 20.7367C24.3858 20.7023 24.8533 20.4895 25.2053 20.1375C25.5574 19.7854 25.7702 19.318 25.8045 18.8213C25.8389 18.3246 25.6924 17.8323 25.3921 17.4352C25.0919 17.0381 24.6581 16.763 24.1709 16.6606C23.6837 16.5583 23.1759 16.6356 22.7413 16.8784L21.3125 15.4487V13.2446H27.5C27.5497 13.2446 27.5974 13.2644 27.6326 13.2995C27.6677 13.3347 27.6875 13.3824 27.6875 13.4321V28.4321ZM23.75 17.7446C23.9354 17.7446 24.1167 17.7996 24.2708 17.9026C24.425 18.0056 24.5452 18.1521 24.6161 18.3234C24.6871 18.4947 24.7057 18.6832 24.6695 18.865C24.6333 19.0469 24.544 19.2139 24.4129 19.345C24.2818 19.4762 24.1148 19.5654 23.9329 19.6016C23.751 19.6378 23.5625 19.6192 23.3912 19.5483C23.2199 19.4773 23.0735 19.3571 22.9705 19.203C22.8675 19.0488 22.8125 18.8675 22.8125 18.6821C22.8125 18.4335 22.9113 18.195 23.0871 18.0192C23.2629 17.8434 23.5014 17.7446 23.75 17.7446Z" fill="#012657"/>
</svg>
