<svg width="14" height="11" viewBox="0 0 14 11" fill="none" xmlns="http://www.w3.org/2000/svg">
<path d="M2.33325 0.0986328H11.6666C12.7711 0.0986328 13.6665 0.993968 13.6666 2.09846C13.5841 2.09843 13.5002 2.11381 13.419 2.14631L7.49511 4.51587C7.17723 4.64302 6.82261 4.64302 6.50473 4.51587L0.580846 2.14631C0.499589 2.11381 0.415727 2.09843 0.333252 2.09846C0.333348 0.993967 1.22874 0.0986328 2.33325 0.0986328Z" fill="#101928"/>
<path d="M0.333252 3.48332V8.7653C0.333252 9.86987 1.22868 10.7653 2.33325 10.7653H11.6666C12.7712 10.7653 13.6666 9.86987 13.6666 8.7653V3.48332L7.99029 5.75384C7.35453 6.00814 6.64531 6.00814 6.00954 5.75384L0.333252 3.48332Z" fill="#101928"/>
</svg>
