<svg width="14" height="12" viewBox="0 0 14 12" fill="none" xmlns="http://www.w3.org/2000/svg">
<path d="M2.33325 0.666656H11.6666C12.7711 0.666656 13.6665 1.56199 13.6666 2.66648C13.5841 2.66645 13.5002 2.68184 13.419 2.71434L7.49511 5.08389C7.17723 5.21104 6.82261 5.21104 6.50473 5.08389L0.580846 2.71434C0.499589 2.68184 0.415727 2.66645 0.333252 2.66648C0.333348 1.56199 1.22874 0.666656 2.33325 0.666656Z" fill="white"/>
<path d="M0.333252 4.05134V9.33332C0.333252 10.4379 1.22868 11.3333 2.33325 11.3333H11.6666C12.7712 11.3333 13.6666 10.4379 13.6666 9.33332V4.05134L7.99029 6.32186C7.35453 6.57617 6.64531 6.57617 6.00954 6.32186L0.333252 4.05134Z" fill="white"/>
</svg>
