<svg width="16" height="16" viewBox="0 0 16 16" fill="none" xmlns="http://www.w3.org/2000/svg">
<path d="M2.92676 2.70016L3.28379 2.34314C4.06483 1.56209 5.33116 1.56209 6.11221 2.34314L6.73146 2.96239C7.36809 3.59902 7.50087 4.58256 7.05583 5.36521L7.01924 5.42957C6.66269 6.0566 6.66438 6.83252 7.08728 7.41686C7.29797 7.70798 7.53599 8.00956 7.76213 8.2357C7.98827 8.46184 8.28984 8.69986 8.58097 8.91055C9.16531 9.33344 9.94123 9.33514 10.5683 8.97859L10.6326 8.942C11.4153 8.49696 12.3988 8.62973 13.0354 9.26636L13.6547 9.88561C14.4357 10.6667 14.4357 11.933 13.6547 12.714L13.2977 13.0711C12.9226 13.4461 12.4116 13.6551 11.8959 13.5311C10.7937 13.2663 8.66977 12.4432 6.11221 9.88561C3.55466 7.32806 2.73157 5.20412 2.46668 4.10193C2.34273 3.58619 2.55169 3.07524 2.92676 2.70016Z" fill="white"/>
</svg>
