<svg width="16" height="17" viewBox="0 0 16 17" fill="none" xmlns="http://www.w3.org/2000/svg">
<path d="M2.92676 3.13226L3.28379 2.77524C4.06483 1.99419 5.33116 1.99419 6.11221 2.77524L6.73146 3.39449C7.36809 4.03112 7.50087 5.01466 7.05583 5.79731L7.01924 5.86166C6.66269 6.4887 6.66438 7.26461 7.08728 7.84896C7.29797 8.14008 7.53599 8.44166 7.76213 8.6678C7.98827 8.89393 8.28984 9.13196 8.58097 9.34265C9.16531 9.76554 9.94123 9.76723 10.5683 9.41069L10.6326 9.37409C11.4153 8.92906 12.3988 9.06183 13.0354 9.69846L13.6547 10.3177C14.4357 11.0988 14.4357 12.3651 13.6547 13.1461L13.2977 13.5032C12.9226 13.8782 12.4116 14.0872 11.8959 13.9632C10.7937 13.6984 8.66977 12.8753 6.11221 10.3177C3.55466 7.76015 2.73157 5.63622 2.46668 4.53403C2.34273 4.01828 2.55169 3.50734 2.92676 3.13226Z" fill="#101928"/>
</svg>
